<?xml version="1.0" encoding="UTF-8"?>
<svg xmlns="http://www.w3.org/2000/svg" version="1.1" viewBox="0 20 841.89 595.28">
  <defs>
    <style>
      .cls-1 {
        fill: #004187;
      }

      .cls-2 {
        fill: #fff;
      }

      .cls-3 {
        fill: #389efe;
        opacity: .5;
      }
    </style>
  </defs>
  <!-- Generator: Adobe Illustrator 28.6.0, SVG Export Plug-In . SVG Version: 1.2.0 Build 709)  -->
  <g>
    <g id="Layer_1">
      <rect class="cls-1" y="-1" width="841.89" height="596.28"/>
      <path class="cls-2" d="M416.42,293.57c0-3.27.53-6.31,1.56-9.01,1.03-2.68,2.5-5.02,4.38-6.94,1.87-1.91,4.11-3.4,6.65-4.43,2.56-1.03,5.36-1.55,8.34-1.55,6.26,0,10.91,1.82,14.21,5.57,3.3,3.75,4.98,8.97,4.98,15.5v45.19h14.14v-47.94c0-4.59-.69-8.84-2.04-12.65-1.36-3.84-3.37-7.2-5.96-9.99-2.6-2.8-5.79-4.99-9.5-6.51-3.69-1.52-7.94-2.28-12.65-2.28-6.75,0-12.34,1.53-16.63,4.54-2.85,2-5.35,4.31-7.47,6.9v-9.85h-14.14v77.79h14.14v-44.32Z"/>
      <path class="cls-2" d="M493.77,327.67c3.54,3.64,7.78,6.57,12.62,8.72,4.85,2.15,10.19,3.24,15.87,3.24,7.28,0,13.49-1.45,18.47-4.31,4.9-2.81,9.33-6.45,13.18-10.81l.96-1.09-9.24-8.68-1.03,1.09c-2.87,3.06-6.14,5.64-9.71,7.68-3.46,1.98-7.52,2.98-12.06,2.98-3.73,0-7.2-.71-10.31-2.1-3.13-1.4-5.88-3.37-8.2-5.86-2.32-2.49-4.17-5.47-5.49-8.84-1.32-3.37-1.99-7.02-1.99-10.85s.65-7.47,1.93-10.79c1.28-3.32,3.08-6.27,5.35-8.76,2.26-2.48,4.97-4.45,8.05-5.85,3.07-1.4,6.41-2.1,9.94-2.1,4.8,0,8.88,1.04,12.15,3.1,3.4,2.14,6.59,4.75,9.49,7.73l1.09,1.13,9.43-9.98-.98-1.03c-1.77-1.86-3.71-3.66-5.79-5.34-2.09-1.69-4.42-3.19-6.93-4.44-2.5-1.25-5.29-2.24-8.29-2.94-3-.7-6.37-1.05-10.03-1.05-5.68,0-11.02,1.09-15.87,3.24-4.83,2.14-9.08,5.1-12.63,8.8-3.54,3.69-6.35,8.06-8.34,12.99-1.99,4.93-3,10.2-3,15.68s1.01,10.73,3,15.61c1.99,4.88,4.8,9.21,8.34,12.85Z"/>
      <path class="cls-2" d="M636.49,283.31c-2-4.89-4.83-9.21-8.42-12.85-3.59-3.64-7.91-6.57-12.84-8.71-4.94-2.15-10.38-3.23-16.15-3.23s-11.35,1.09-16.29,3.23c-4.93,2.14-9.25,5.1-12.85,8.79-3.59,3.69-6.42,8.07-8.42,13-1.99,4.93-3,10.2-3,15.68s1.01,10.73,3,15.61c1.99,4.89,4.83,9.21,8.42,12.86,3.59,3.64,7.88,6.57,12.76,8.71,4.89,2.15,10.3,3.24,16.08,3.24s11.22-1.09,16.22-3.23c4.98-2.14,9.33-5.1,12.92-8.79,3.59-3.68,6.44-8.05,8.49-12.99,2.04-4.94,3.08-10.22,3.08-15.69s-1.01-10.72-3-15.61ZM599.08,326.5c-3.72,0-7.21-.73-10.37-2.17-3.18-1.45-5.97-3.42-8.29-5.87-2.32-2.45-4.16-5.39-5.48-8.75-1.32-3.36-1.99-7.01-1.99-10.85s.65-7.47,1.92-10.79c1.28-3.33,3.06-6.28,5.29-8.77,2.21-2.48,4.94-4.44,8.1-5.83,3.17-1.4,6.71-2.11,10.53-2.11s7.21.73,10.37,2.18c3.18,1.45,5.99,3.45,8.36,5.94,2.36,2.49,4.23,5.46,5.55,8.82,1.32,3.38,1.99,7.03,1.99,10.86s-.65,7.46-1.92,10.79c-1.28,3.32-3.08,6.24-5.34,8.68-2.26,2.43-5.01,4.38-8.19,5.78-3.16,1.4-6.71,2.11-10.53,2.11Z"/>
      <path class="cls-2" d="M377.14,353.45c-3.22,1-6.24,2.51-8.97,4.48-2.71,1.96-5.15,4.32-7.25,7.02-.85,1.09-1.64,2.23-2.38,3.4v-14.98h-14.14v77.79h14.14v-31.3c0-5.4.75-10.21,2.23-14.32,1.47-4.08,3.5-7.54,6.05-10.26,2.54-2.72,5.55-4.79,8.94-6.14,3.42-1.37,7.1-2.06,10.94-2.06h2.37v-14.97l-1.46-.04c-3.73-.1-7.25.36-10.47,1.37Z"/>
      <path class="cls-2" d="M462.12,363.9c-3.12-3.72-6.98-6.69-11.5-8.85-4.53-2.16-9.71-3.26-15.4-3.26s-10.46,1.07-15.02,3.18c-4.55,2.1-8.53,5.02-11.84,8.67-3.3,3.65-5.9,8-7.74,12.92-1.84,4.91-2.77,10.23-2.77,15.79,0,5.96,1.05,11.51,3.12,16.49,2.07,4.98,4.9,9.31,8.42,12.85,3.52,3.55,7.69,6.34,12.39,8.29,4.69,1.95,9.75,2.93,15.04,2.93,7.35,0,13.62-1.35,18.64-4.01,4.96-2.63,9.43-6.17,13.3-10.53l.99-1.12-9.13-8.18-1,1.03c-2.96,3.05-6.27,5.54-9.82,7.38-3.48,1.81-7.75,2.73-12.69,2.73-3.09,0-6.07-.53-8.88-1.57-2.8-1.04-5.36-2.6-7.62-4.63-2.26-2.04-4.14-4.56-5.59-7.51-1.25-2.53-2.1-5.42-2.55-8.61h58.78l.18-1.29c.11-.75.16-1.46.16-2.09v-1.59c0-5.62-.8-10.98-2.39-15.94-1.59-4.98-3.98-9.39-7.08-13.09ZM434.93,364.19c3.48,0,6.58.65,9.19,1.94,2.63,1.3,4.89,3.05,6.71,5.2,1.84,2.16,3.29,4.73,4.33,7.63.88,2.45,1.49,5.03,1.83,7.69h-44.51c.43-2.87,1.19-5.56,2.26-8.03,1.27-2.91,2.92-5.47,4.9-7.61,1.97-2.12,4.28-3.8,6.87-5.02,2.56-1.2,5.4-1.81,8.42-1.81Z"/>
      <path class="cls-2" d="M545.42,363.9c-3.11-3.72-6.98-6.69-11.5-8.85-4.53-2.16-9.71-3.26-15.4-3.26s-10.46,1.07-15.02,3.18c-4.55,2.1-8.54,5.02-11.84,8.67-3.3,3.65-5.9,8-7.74,12.92-1.84,4.92-2.77,10.23-2.77,15.79,0,5.96,1.05,11.51,3.12,16.49,2.07,4.98,4.9,9.31,8.42,12.85,3.52,3.55,7.68,6.34,12.39,8.29,4.69,1.95,9.75,2.93,15.04,2.93,7.35,0,13.62-1.35,18.64-4.01,4.96-2.63,9.43-6.17,13.3-10.53l.99-1.12-9.13-8.18-1,1.04c-2.96,3.05-6.26,5.54-9.81,7.38-3.48,1.81-7.75,2.73-12.69,2.73-3.08,0-6.07-.53-8.88-1.57-2.8-1.04-5.36-2.6-7.62-4.63-2.26-2.04-4.14-4.56-5.59-7.51-1.25-2.53-2.1-5.42-2.55-8.61h58.79l.18-1.29c.11-.75.16-1.45.16-2.09v-1.59c0-5.62-.8-10.98-2.39-15.94-1.59-4.98-3.98-9.39-7.08-13.09ZM518.23,364.19c3.48,0,6.58.65,9.19,1.94,2.63,1.3,4.89,3.05,6.71,5.2,1.84,2.16,3.29,4.73,4.33,7.63.87,2.45,1.49,5.03,1.83,7.69h-44.51c.43-2.87,1.19-5.57,2.26-8.03,1.27-2.92,2.92-5.48,4.9-7.61,1.97-2.12,4.28-3.8,6.87-5.02,2.56-1.2,5.39-1.81,8.42-1.81Z"/>
      <polygon class="cls-2" points="352.01 293.84 234.98 293.84 234.98 305.97 286.77 305.97 286.77 430.86 300.23 430.86 300.23 305.97 352.01 305.97 352.01 293.84"/>
      <path class="cls-3" d="M292.34,163.94c-51.67,0-93.71,42.04-93.71,93.71s39.05,90.65,88.14,93.54v-45.22h-51.79v-12.14h117.04v12.14h-51.79v45.05c47.99-4.02,85.82-44.36,85.82-93.38,0-51.67-42.04-93.71-93.71-93.71Z"/>
    </g>
  </g>
</svg>